<?xml version="1.0" encoding="UTF-8" standalone="no"?>
<!DOCTYPE svg PUBLIC "-//W3C//DTD SVG 1.1//EN"
 "http://www.w3.org/Graphics/SVG/1.1/DTD/svg11.dtd">
<!-- Generated by graphviz version 2.43.0 (0)
 -->
<!-- Title: G Pages: 1 -->
<svg width="638pt" height="188pt"
 viewBox="0.00 0.00 638.00 188.00" xmlns="http://www.w3.org/2000/svg" xmlns:xlink="http://www.w3.org/1999/xlink">
<g id="graph0" class="graph" transform="scale(1 1) rotate(0) translate(4 184)">
<title>G</title>
<polygon fill="white" stroke="transparent" points="-4,4 -4,-184 634,-184 634,4 -4,4"/>
<!-- cn21 -->
<g id="node1" class="node">
<title>cn21</title>
<polygon fill="none" stroke="black" points="342,-180 288,-180 288,-144 342,-144 342,-180"/>
<text text-anchor="middle" x="315" y="-158.3" font-family="Times,serif" font-size="14.00">cn21</text>
</g>
<!-- sw1 (L1) -->
<g id="node2" class="node">
<title>sw1 (L1)</title>
<polygon fill="none" stroke="black" points="354,-108 276,-108 276,-72 354,-72 354,-108"/>
<text text-anchor="middle" x="315" y="-86.3" font-family="Times,serif" font-size="14.00">sw1 (L1)</text>
</g>
<!-- cn21&#45;&gt;sw1 (L1) -->
<g id="edge1" class="edge">
<title>cn21&#45;&gt;sw1 (L1)</title>
<path fill="none" stroke="black" d="M309.08,-143.7C308.29,-135.98 308.06,-126.71 308.4,-118.11"/>
<polygon fill="black" stroke="black" points="311.9,-118.32 309.1,-108.1 304.92,-117.84 311.9,-118.32"/>
</g>
<!-- sw1 (L1)&#45;&gt;cn21 -->
<g id="edge4" class="edge">
<title>sw1 (L1)&#45;&gt;cn21</title>
<path fill="none" stroke="black" d="M320.9,-108.1C321.7,-115.79 321.94,-125.05 321.6,-133.67"/>
<polygon fill="black" stroke="black" points="318.11,-133.48 320.92,-143.7 325.09,-133.96 318.11,-133.48"/>
</g>
<!-- cn19 -->
<g id="node3" class="node">
<title>cn19</title>
<polygon fill="none" stroke="black" points="54,-36 0,-36 0,0 54,0 54,-36"/>
<text text-anchor="middle" x="27" y="-14.3" font-family="Times,serif" font-size="14.00">cn19</text>
</g>
<!-- sw1 (L1)&#45;&gt;cn19 -->
<g id="edge2" class="edge">
<title>sw1 (L1)&#45;&gt;cn19</title>
<path fill="none" stroke="black" d="M275.85,-84.54C226.21,-77.74 138.59,-63.04 64.36,-39.39"/>
<polygon fill="black" stroke="black" points="65.04,-35.93 54.45,-36.15 62.87,-42.58 65.04,-35.93"/>
</g>
<!-- cn26 -->
<g id="node4" class="node">
<title>cn26</title>
<polygon fill="none" stroke="black" points="126,-36 72,-36 72,0 126,0 126,-36"/>
<text text-anchor="middle" x="99" y="-14.3" font-family="Times,serif" font-size="14.00">cn26</text>
</g>
<!-- sw1 (L1)&#45;&gt;cn26 -->
<g id="edge9" class="edge">
<title>sw1 (L1)&#45;&gt;cn26</title>
<path fill="none" stroke="black" d="M275.74,-81C239.36,-72.31 184.08,-57.28 135.84,-39.67"/>
<polygon fill="black" stroke="black" points="136.89,-36.32 126.3,-36.11 134.44,-42.88 136.89,-36.32"/>
</g>
<!-- cn25 -->
<g id="node5" class="node">
<title>cn25</title>
<polygon fill="none" stroke="black" points="198,-36 144,-36 144,0 198,0 198,-36"/>
<text text-anchor="middle" x="171" y="-14.3" font-family="Times,serif" font-size="14.00">cn25</text>
</g>
<!-- sw1 (L1)&#45;&gt;cn25 -->
<g id="edge8" class="edge">
<title>sw1 (L1)&#45;&gt;cn25</title>
<path fill="none" stroke="black" d="M275.8,-72.76C254.53,-62.96 228.47,-50.36 207.61,-39.83"/>
<polygon fill="black" stroke="black" points="208.93,-36.57 198.43,-35.15 205.75,-42.81 208.93,-36.57"/>
</g>
<!-- cn27 -->
<g id="node6" class="node">
<title>cn27</title>
<polygon fill="none" stroke="black" points="270,-36 216,-36 216,0 270,0 270,-36"/>
<text text-anchor="middle" x="243" y="-14.3" font-family="Times,serif" font-size="14.00">cn27</text>
</g>
<!-- sw1 (L1)&#45;&gt;cn27 -->
<g id="edge10" class="edge">
<title>sw1 (L1)&#45;&gt;cn27</title>
<path fill="none" stroke="black" d="M291.29,-71.7C281.69,-63.22 270.85,-52.86 261.81,-43.58"/>
<polygon fill="black" stroke="black" points="264.12,-40.94 254.7,-36.1 259.05,-45.76 264.12,-40.94"/>
</g>
<!-- cn22 -->
<g id="node7" class="node">
<title>cn22</title>
<polygon fill="none" stroke="black" points="342,-36 288,-36 288,0 342,0 342,-36"/>
<text text-anchor="middle" x="315" y="-14.3" font-family="Times,serif" font-size="14.00">cn22</text>
</g>
<!-- sw1 (L1)&#45;&gt;cn22 -->
<g id="edge5" class="edge">
<title>sw1 (L1)&#45;&gt;cn22</title>
<path fill="none" stroke="black" d="M309.08,-71.7C308.29,-63.98 308.06,-54.71 308.4,-46.11"/>
<polygon fill="black" stroke="black" points="311.9,-46.32 309.1,-36.1 304.92,-45.84 311.9,-46.32"/>
</g>
<!-- cn24 -->
<g id="node8" class="node">
<title>cn24</title>
<polygon fill="none" stroke="black" points="414,-36 360,-36 360,0 414,0 414,-36"/>
<text text-anchor="middle" x="387" y="-14.3" font-family="Times,serif" font-size="14.00">cn24</text>
</g>
<!-- sw1 (L1)&#45;&gt;cn24 -->
<g id="edge7" class="edge">
<title>sw1 (L1)&#45;&gt;cn24</title>
<path fill="none" stroke="black" d="M326.88,-71.7C334.88,-63.05 345.61,-52.45 355.84,-43.03"/>
<polygon fill="black" stroke="black" points="358.43,-45.4 363.51,-36.1 353.74,-40.21 358.43,-45.4"/>
</g>
<!-- cn20 -->
<g id="node9" class="node">
<title>cn20</title>
<polygon fill="none" stroke="black" points="486,-36 432,-36 432,0 486,0 486,-36"/>
<text text-anchor="middle" x="459" y="-14.3" font-family="Times,serif" font-size="14.00">cn20</text>
</g>
<!-- sw1 (L1)&#45;&gt;cn20 -->
<g id="edge3" class="edge">
<title>sw1 (L1)&#45;&gt;cn20</title>
<path fill="none" stroke="black" d="M344.33,-71.88C366.93,-60.3 398.17,-45.15 422.4,-34.04"/>
<polygon fill="black" stroke="black" points="423.98,-37.17 431.64,-29.85 421.09,-30.79 423.98,-37.17"/>
</g>
<!-- cn28 -->
<g id="node10" class="node">
<title>cn28</title>
<polygon fill="none" stroke="black" points="558,-36 504,-36 504,0 558,0 558,-36"/>
<text text-anchor="middle" x="531" y="-14.3" font-family="Times,serif" font-size="14.00">cn28</text>
</g>
<!-- sw1 (L1)&#45;&gt;cn28 -->
<g id="edge11" class="edge">
<title>sw1 (L1)&#45;&gt;cn28</title>
<path fill="none" stroke="black" d="M354.19,-77.43C389.26,-67.78 441.55,-52.92 486,-36 488.82,-34.93 491.72,-33.73 494.64,-32.47"/>
<polygon fill="black" stroke="black" points="496.2,-35.61 503.94,-28.38 493.38,-29.2 496.2,-35.61"/>
</g>
<!-- cn23 -->
<g id="node11" class="node">
<title>cn23</title>
<polygon fill="none" stroke="black" points="630,-36 576,-36 576,0 630,0 630,-36"/>
<text text-anchor="middle" x="603" y="-14.3" font-family="Times,serif" font-size="14.00">cn23</text>
</g>
<!-- sw1 (L1)&#45;&gt;cn23 -->
<g id="edge6" class="edge">
<title>sw1 (L1)&#45;&gt;cn23</title>
<path fill="none" stroke="black" d="M354.35,-82.65C403.09,-74.82 487.87,-59.57 558,-36 560.7,-35.09 563.47,-34.03 566.25,-32.9"/>
<polygon fill="black" stroke="black" points="567.85,-36.02 575.65,-28.85 565.08,-29.59 567.85,-36.02"/>
</g>
<!-- cn19&#45;&gt;sw1 (L1) -->
<g id="edge12" class="edge">
<title>cn19&#45;&gt;sw1 (L1)</title>
<path fill="none" stroke="black" d="M54.35,-28.85C60.18,-31.45 66.23,-34.06 72,-36 137.48,-58.01 215.71,-72.76 265.48,-80.99"/>
<polygon fill="black" stroke="black" points="265.22,-84.49 275.65,-82.65 266.34,-77.59 265.22,-84.49"/>
</g>
<!-- cn26&#45;&gt;sw1 (L1) -->
<g id="edge13" class="edge">
<title>cn26&#45;&gt;sw1 (L1)</title>
<path fill="none" stroke="black" d="M126.06,-28.38C132.01,-31.03 138.19,-33.79 144,-36 184.46,-51.4 231.41,-65.09 265.96,-74.7"/>
<polygon fill="black" stroke="black" points="265.24,-78.13 275.81,-77.43 267.1,-71.39 265.24,-78.13"/>
</g>
<!-- cn25&#45;&gt;sw1 (L1) -->
<g id="edge14" class="edge">
<title>cn25&#45;&gt;sw1 (L1)</title>
<path fill="none" stroke="black" d="M198.36,-29.85C220.55,-39.8 251.91,-54.84 276.58,-67.26"/>
<polygon fill="black" stroke="black" points="275.17,-70.47 285.67,-71.88 278.34,-64.23 275.17,-70.47"/>
</g>
<!-- cn27&#45;&gt;sw1 (L1) -->
<g id="edge15" class="edge">
<title>cn27&#45;&gt;sw1 (L1)</title>
<path fill="none" stroke="black" d="M266.49,-36.1C276.06,-44.55 286.91,-54.9 295.98,-64.2"/>
<polygon fill="black" stroke="black" points="293.69,-66.87 303.12,-71.7 298.76,-62.04 293.69,-66.87"/>
</g>
<!-- cn22&#45;&gt;sw1 (L1) -->
<g id="edge16" class="edge">
<title>cn22&#45;&gt;sw1 (L1)</title>
<path fill="none" stroke="black" d="M320.9,-36.1C321.7,-43.79 321.94,-53.05 321.6,-61.67"/>
<polygon fill="black" stroke="black" points="318.11,-61.48 320.92,-71.7 325.09,-61.96 318.11,-61.48"/>
</g>
<!-- cn24&#45;&gt;sw1 (L1) -->
<g id="edge17" class="edge">
<title>cn24&#45;&gt;sw1 (L1)</title>
<path fill="none" stroke="black" d="M375.3,-36.1C367.34,-44.72 356.63,-55.32 346.4,-64.76"/>
<polygon fill="black" stroke="black" points="343.79,-62.4 338.71,-71.7 348.48,-67.59 343.79,-62.4"/>
</g>
<!-- cn20&#45;&gt;sw1 (L1) -->
<g id="edge18" class="edge">
<title>cn20&#45;&gt;sw1 (L1)</title>
<path fill="none" stroke="black" d="M431.57,-35.15C412.28,-45.07 386.08,-57.87 363.36,-68.51"/>
<polygon fill="black" stroke="black" points="361.79,-65.38 354.2,-72.76 364.74,-71.73 361.79,-65.38"/>
</g>
<!-- cn28&#45;&gt;sw1 (L1) -->
<g id="edge19" class="edge">
<title>cn28&#45;&gt;sw1 (L1)</title>
<path fill="none" stroke="black" d="M503.7,-36.11C457.51,-53.68 402.9,-69.01 364.23,-78.58"/>
<polygon fill="black" stroke="black" points="363.15,-75.24 354.26,-81 364.8,-82.04 363.15,-75.24"/>
</g>
<!-- cn23&#45;&gt;sw1 (L1) -->
<g id="edge20" class="edge">
<title>cn23&#45;&gt;sw1 (L1)</title>
<path fill="none" stroke="black" d="M575.55,-36.15C504.12,-60.1 417.62,-75.43 364.34,-83.11"/>
<polygon fill="black" stroke="black" points="363.56,-79.68 354.15,-84.54 364.54,-86.61 363.56,-79.68"/>
</g>
</g>
</svg>
