<?xml version="1.0" encoding="UTF-8" standalone="no"?>
<!DOCTYPE svg PUBLIC "-//W3C//DTD SVG 1.1//EN"
 "http://www.w3.org/Graphics/SVG/1.1/DTD/svg11.dtd">
<!-- Generated by graphviz version 2.43.0 (0)
 -->
<!-- Title: G Pages: 1 -->
<svg width="566pt" height="188pt"
 viewBox="0.00 0.00 566.00 188.00" xmlns="http://www.w3.org/2000/svg" xmlns:xlink="http://www.w3.org/1999/xlink">
<g id="graph0" class="graph" transform="scale(1 1) rotate(0) translate(4 184)">
<title>G</title>
<polygon fill="white" stroke="transparent" points="-4,4 -4,-184 562,-184 562,4 -4,4"/>
<!-- l2sw2 (L2) -->
<g id="node1" class="node">
<title>l2sw2 (L2)</title>
<polygon fill="lightblue" stroke="lightblue" points="264.5,-36 185.5,-36 185.5,0 264.5,0 264.5,-36"/>
<text text-anchor="middle" x="225" y="-14.3" font-family="Arial" font-size="14.00">l2sw2 (L2)</text>
</g>
<!-- l2sw1 (L2) -->
<g id="node2" class="node">
<title>l2sw1 (L2)</title>
<polygon fill="lightblue" stroke="lightblue" points="384.5,-36 305.5,-36 305.5,0 384.5,0 384.5,-36"/>
<text text-anchor="middle" x="345" y="-14.3" font-family="Arial" font-size="14.00">l2sw1 (L2)</text>
</g>
<!-- l1sw2 (L1) -->
<g id="node3" class="node">
<title>l1sw2 (L1)</title>
<polygon fill="lightblue" stroke="lightblue" points="222.5,-108 143.5,-108 143.5,-72 222.5,-72 222.5,-108"/>
<text text-anchor="middle" x="183" y="-86.3" font-family="Arial" font-size="14.00">l1sw2 (L1)</text>
</g>
<!-- l1sw2 (L1)&#45;&#45;l2sw2 (L2) -->
<g id="edge2" class="edge">
<title>l1sw2 (L1)&#45;&#45;l2sw2 (L2)</title>
<path fill="none" stroke="black" stroke-width="2" d="M193.38,-71.7C199.89,-60.85 208.25,-46.92 214.74,-36.1"/>
</g>
<!-- l1sw2 (L1)&#45;&#45;l2sw1 (L2) -->
<g id="edge4" class="edge">
<title>l1sw2 (L1)&#45;&#45;l2sw1 (L2)</title>
<path fill="none" stroke="black" stroke-width="2" d="M222.63,-71.88C247.83,-60.99 280.33,-46.95 305.5,-36.07"/>
</g>
<!-- l1sw1 (L1) -->
<g id="node4" class="node">
<title>l1sw1 (L1)</title>
<polygon fill="lightblue" stroke="lightblue" points="390.5,-108 311.5,-108 311.5,-72 390.5,-72 390.5,-108"/>
<text text-anchor="middle" x="351" y="-86.3" font-family="Arial" font-size="14.00">l1sw1 (L1)</text>
</g>
<!-- l1sw1 (L1)&#45;&#45;l2sw2 (L2) -->
<g id="edge1" class="edge">
<title>l1sw1 (L1)&#45;&#45;l2sw2 (L2)</title>
<path fill="none" stroke="black" stroke-width="2" d="M320.18,-71.88C300.65,-61.03 275.49,-47.05 255.94,-36.19"/>
</g>
<!-- l1sw1 (L1)&#45;&#45;l2sw1 (L2) -->
<g id="edge3" class="edge">
<title>l1sw1 (L1)&#45;&#45;l2sw1 (L2)</title>
<path fill="none" stroke="black" stroke-width="2" d="M349.52,-71.7C348.59,-60.85 347.39,-46.92 346.47,-36.1"/>
</g>
<!-- cn1 -->
<g id="node5" class="node">
<title>cn1</title>
<polygon fill="lightblue" stroke="lightblue" points="342,-180 288,-180 288,-144 342,-144 342,-180"/>
<text text-anchor="middle" x="315" y="-158.3" font-family="Arial" font-size="14.00">cn1</text>
</g>
<!-- cn1&#45;&#45;l1sw1 (L1) -->
<g id="edge9" class="edge">
<title>cn1&#45;&#45;l1sw1 (L1)</title>
<path fill="none" stroke="black" stroke-width="2" d="M323.9,-143.7C329.48,-132.85 336.64,-118.92 342.2,-108.1"/>
</g>
<!-- cn3 -->
<g id="node6" class="node">
<title>cn3</title>
<polygon fill="lightblue" stroke="lightblue" points="414,-180 360,-180 360,-144 414,-144 414,-180"/>
<text text-anchor="middle" x="387" y="-158.3" font-family="Arial" font-size="14.00">cn3</text>
</g>
<!-- cn3&#45;&#45;l1sw1 (L1) -->
<g id="edge11" class="edge">
<title>cn3&#45;&#45;l1sw1 (L1)</title>
<path fill="none" stroke="black" stroke-width="2" d="M378.1,-143.7C372.52,-132.85 365.36,-118.92 359.8,-108.1"/>
</g>
<!-- cn2 -->
<g id="node7" class="node">
<title>cn2</title>
<polygon fill="lightblue" stroke="lightblue" points="486,-180 432,-180 432,-144 486,-144 486,-180"/>
<text text-anchor="middle" x="459" y="-158.3" font-family="Arial" font-size="14.00">cn2</text>
</g>
<!-- cn2&#45;&#45;l1sw1 (L1) -->
<g id="edge10" class="edge">
<title>cn2&#45;&#45;l1sw1 (L1)</title>
<path fill="none" stroke="black" stroke-width="2" d="M432.58,-143.88C415.84,-133.03 394.28,-119.05 377.52,-108.19"/>
</g>
<!-- cn6 -->
<g id="node8" class="node">
<title>cn6</title>
<polygon fill="lightblue" stroke="lightblue" points="54,-180 0,-180 0,-144 54,-144 54,-180"/>
<text text-anchor="middle" x="27" y="-158.3" font-family="Arial" font-size="14.00">cn6</text>
</g>
<!-- cn6&#45;&#45;l1sw2 (L1) -->
<g id="edge6" class="edge">
<title>cn6&#45;&#45;l1sw2 (L1)</title>
<path fill="none" stroke="black" stroke-width="2" d="M54.09,-148.12C57.09,-146.72 60.11,-145.32 63,-144 89.83,-131.74 120.22,-118.33 143.71,-108.06"/>
</g>
<!-- cn8 -->
<g id="node9" class="node">
<title>cn8</title>
<polygon fill="lightblue" stroke="lightblue" points="126,-180 72,-180 72,-144 126,-144 126,-180"/>
<text text-anchor="middle" x="99" y="-158.3" font-family="Arial" font-size="14.00">cn8</text>
</g>
<!-- cn8&#45;&#45;l1sw2 (L1) -->
<g id="edge8" class="edge">
<title>cn8&#45;&#45;l1sw2 (L1)</title>
<path fill="none" stroke="black" stroke-width="2" d="M119.76,-143.7C132.78,-132.85 149.5,-118.92 162.47,-108.1"/>
</g>
<!-- cn5 -->
<g id="node10" class="node">
<title>cn5</title>
<polygon fill="lightblue" stroke="lightblue" points="198,-180 144,-180 144,-144 198,-144 198,-180"/>
<text text-anchor="middle" x="171" y="-158.3" font-family="Arial" font-size="14.00">cn5</text>
</g>
<!-- cn5&#45;&#45;l1sw2 (L1) -->
<g id="edge5" class="edge">
<title>cn5&#45;&#45;l1sw2 (L1)</title>
<path fill="none" stroke="black" stroke-width="2" d="M173.97,-143.7C175.83,-132.85 178.21,-118.92 180.07,-108.1"/>
</g>
<!-- cn4 -->
<g id="node11" class="node">
<title>cn4</title>
<polygon fill="lightblue" stroke="lightblue" points="558,-180 504,-180 504,-144 558,-144 558,-180"/>
<text text-anchor="middle" x="531" y="-158.3" font-family="Arial" font-size="14.00">cn4</text>
</g>
<!-- cn4&#45;&#45;l1sw1 (L1) -->
<g id="edge12" class="edge">
<title>cn4&#45;&#45;l1sw1 (L1)</title>
<path fill="none" stroke="black" stroke-width="2" d="M503.99,-147.93C500.97,-146.57 497.93,-145.23 495,-144 460.24,-129.43 419.91,-114.77 390.79,-104.58"/>
</g>
<!-- cn7 -->
<g id="node12" class="node">
<title>cn7</title>
<polygon fill="lightblue" stroke="lightblue" points="270,-180 216,-180 216,-144 270,-144 270,-180"/>
<text text-anchor="middle" x="243" y="-158.3" font-family="Arial" font-size="14.00">cn7</text>
</g>
<!-- cn7&#45;&#45;l1sw2 (L1) -->
<g id="edge7" class="edge">
<title>cn7&#45;&#45;l1sw2 (L1)</title>
<path fill="none" stroke="black" stroke-width="2" d="M228.17,-143.7C218.87,-132.85 206.93,-118.92 197.66,-108.1"/>
</g>
</g>
</svg>
